<svg xmlns="http://www.w3.org/2000/svg" viewBox="0 0 64 64" id="ink"><g data-name="Layer 2"><path fill="#000" d="M7 42a1 1 0 0 1-1 1 5.025 5.025 0 0 1-1.237-.154 1 1 0 1 1 .492-1.939A3.026 3.026 0 0 0 6 41a1 1 0 0 1 1 1ZM29.996 3H28.01a1 1 0 0 0 0 2h1.986a1 1 0 0 0 0-2Zm-17.88 0H10.13a1 1 0 0 0 0 2h1.986a1 1 0 0 0 0-2Zm11.92 0H22.05a1 1 0 0 0 0 2h1.986a1 1 0 0 0 0-2Zm-5.96 0H16.09a1 1 0 0 0 0 2h1.986a1 1 0 0 0 0-2ZM6.156 3H6a4.962 4.962 0 0 0-2.208.514 1 1 0 0 0 .885 1.794A2.98 2.98 0 0 1 6 5h.156a1 1 0 0 0 0-2ZM2 22.425a1 1 0 0 0 1-1V19.44a1 1 0 0 0-2 0v1.986a1 1 0 0 0 1 1Zm0-5.96a1 1 0 0 0 1-1V13.48a1 1 0 0 0-2 0v1.986a1 1 0 0 0 1 1Zm0-5.96a1 1 0 0 0 1-1V8a3.194 3.194 0 0 1 .021-.364 1 1 0 1 0-1.986-.233A5.01 5.01 0 0 0 1 8v1.505a1 1 0 0 0 1 1ZM3 38v-.681a1 1 0 0 0-2 0V38a4.984 4.984 0 0 0 .263 1.603 1 1 0 1 0 1.894-.64A3.006 3.006 0 0 1 3 38Zm-1-3.655a1 1 0 0 0 1-1V31.36a1 1 0 0 0-2 0v1.986a1 1 0 0 0 1 1Zm0-5.96a1 1 0 0 0 1-1v-1.987a1 1 0 0 0-2 0v1.987a1 1 0 0 0 1 1ZM47.877 3H45.89a1 1 0 0 0 0 2h1.987a1 1 0 0 0 0-2ZM62 24.366a1 1 0 0 0-1 1v1.986a1 1 0 1 0 2 0v-1.986a1 1 0 0 0-1-1Zm0-5.96a1 1 0 0 0-1 1v1.987a1 1 0 0 0 2 0v-1.988a1 1 0 0 0-1-1Zm.96-11.046a1 1 0 0 0-1.984.254A2.965 2.965 0 0 1 61 8v1.472a1 1 0 0 0 2 0V8a5.138 5.138 0 0 0-.04-.64ZM62 30.326a1 1 0 0 0-1 1v1.987a1 1 0 0 0 2 0v-1.987a1 1 0 0 0-1-1Zm0-17.88a1 1 0 0 0-1 1v1.987a1 1 0 0 0 2 0v-1.988a1 1 0 0 0-1-1ZM35.957 3H33.97a1 1 0 0 0 0 2h1.987a1 1 0 0 0 0-2Zm17.88 0h-1.986a1 1 0 0 0 0 2h1.986a1 1 0 0 0 0-2ZM62 36.286a1 1 0 0 0-1 1V38a3.034 3.034 0 0 1-.15.94 1 1 0 1 0 1.9.622A5.013 5.013 0 0 0 63 38v-.714a1 1 0 0 0-1-1ZM41.917 3H39.93a1 1 0 0 0 0 2h1.987a1 1 0 0 0 0-2Zm18.255.495A4.96 4.96 0 0 0 58 3h-.19a1 1 0 0 0 0 2H58a2.97 2.97 0 0 1 1.303.297 1 1 0 0 0 .869-1.802Zm-1.427 37.412A3.026 3.026 0 0 1 58 41a1 1 0 0 0 0 2 5.025 5.025 0 0 0 1.237-.154 1 1 0 1 0-.492-1.939Z"></path><path fill="#ffe454b0" d="M58.93 15.64A.989.989 0 0 0 58 15h-2.72l1.69-6.76a1 1 0 0 0-.48-1.11 1.014 1.014 0 0 0-1.2.16l-4.56 4.57-.3-2.24a.998.998 0 0 0-1.81-.44c-.33.47-7.95 11.66-3.64 23.91a33.764 33.764 0 0 0-.06 3.91H43V16a5.002 5.002 0 0 0-5-5H12a5.002 5.002 0 0 0-5 5v38a7.008 7.008 0 0 0 7 7h38a5.002 5.002 0 0 0 5-5v-8a5.017 5.017 0 0 0-4-4.9V40a3.009 3.009 0 0 0-3-3h-3.08a34.426 34.426 0 0 1 .04-3.73 43.741 43.741 0 0 1 11.7-16.52 1.008 1.008 0 0 0 .27-1.11ZM16 20h18a1 1 0 0 1 0 2H16a1 1 0 0 1 0-2Zm0 5h11a1 1 0 0 1 0 2H16a1 1 0 0 1 0-2Zm0 5h16a1 1 0 0 1 0 2H16a1 1 0 0 1 0-2Zm0 5h9a1 1 0 0 1 0 2h-9a1 1 0 0 1 0-2Zm-1 6a1.003 1.003 0 0 1 1-1h15a1 1 0 0 1 0 2H16a1.003 1.003 0 0 1-1-1Zm27 18H18.89A6.97 6.97 0 0 0 21 54v-2a3.009 3.009 0 0 1 3-3h20a3.009 3.009 0 0 1 3 3v2a5.002 5.002 0 0 1-5 5Zm13-11v8a3.009 3.009 0 0 1-3 3h-5.11A6.97 6.97 0 0 0 49 54v-2a5.002 5.002 0 0 0-5-5h-6.82A3.03 3.03 0 0 1 40 45h12a3.009 3.009 0 0 1 3 3Zm-5-9a1.003 1.003 0 0 1 1 1v3H41v-3a1.003 1.003 0 0 1 1-1Z"></path></g></svg>